<?xml version="1.0" encoding="UTF-8"?>
<svg version="1.1" xmlns="http://www.w3.org/2000/svg" width="571" height="571">
<path d="M0,0 L1,0 L1,1 L2,1 L2,0 L6,0 L6,1 L7,1 L7,0 L9,0 L9,1 L12,1 L12,2 L16,2 L16,3 L19,3 L19,2 L21,2 L21,1 L24,1 L24,3 L26,3 L26,2 L29,2 L29,3 L30,3 L30,2 L32,2 L32,3 L34,3 L34,5 L35,5 L35,4 L44,4 L44,5 L49,5 L49,6 L53,6 L53,7 L57,7 L57,8 L60,8 L60,10 L63,10 L63,11 L66,11 L66,12 L68,12 L68,10 L70,10 L70,12 L73,12 L73,13 L74,13 L74,14 L76,14 L76,15 L81,15 L81,16 L86,16 L86,18 L91,18 L91,19 L93,19 L93,20 L96,20 L96,22 L98,22 L98,23 L100,23 L100,24 L104,24 L104,25 L107,25 L107,26 L108,26 L108,27 L109,27 L109,28 L112,28 L112,29 L113,29 L113,30 L116,30 L116,31 L117,31 L117,33 L119,33 L119,34 L120,34 L120,35 L122,35 L122,36 L123,36 L123,37 L125,37 L125,38 L126,38 L126,39 L128,39 L128,40 L129,40 L129,41 L131,41 L131,42 L132,42 L132,43 L135,43 L135,45 L137,45 L137,46 L138,46 L138,47 L140,47 L140,48 L143,48 L143,49 L144,49 L144,51 L145,51 L145,52 L146,52 L146,53 L147,53 L147,54 L148,54 L148,55 L150,55 L150,56 L153,56 L153,57 L154,57 L154,58 L155,58 L155,59 L156,59 L156,60 L157,60 L157,61 L158,61 L158,62 L162,62 L162,63 L160,63 L160,64 L161,64 L161,65 L163,65 L163,67 L164,67 L164,69 L165,69 L165,70 L169,70 L169,71 L168,71 L168,72 L169,72 L169,73 L170,73 L170,74 L171,74 L171,76 L172,76 L172,77 L173,77 L173,78 L174,78 L174,79 L175,79 L175,81 L178,81 L178,83 L179,83 L179,84 L180,84 L180,85 L181,85 L181,87 L182,87 L182,88 L183,88 L183,89 L184,89 L184,91 L185,91 L185,92 L186,92 L186,93 L187,93 L187,94 L188,94 L188,97 L189,97 L189,99 L190,99 L190,100 L192,100 L192,102 L193,102 L193,103 L192,103 L192,104 L194,104 L194,106 L195,106 L195,108 L196,108 L196,110 L197,110 L197,111 L198,111 L198,112 L197,112 L197,113 L200,113 L200,114 L201,114 L201,116 L202,116 L202,117 L203,117 L203,121 L204,121 L204,122 L205,122 L205,124 L207,124 L207,128 L208,128 L208,130 L209,130 L209,133 L210,133 L210,135 L211,135 L211,137 L212,137 L212,138 L211,138 L211,142 L212,142 L212,144 L213,144 L213,145 L214,145 L214,150 L215,150 L215,151 L216,151 L216,153 L218,153 L218,154 L219,154 L219,157 L220,157 L220,158 L217,158 L217,159 L220,159 L220,160 L221,160 L221,161 L220,161 L220,163 L223,163 L223,164 L222,164 L222,167 L224,167 L224,168 L222,168 L222,169 L223,169 L223,170 L224,170 L224,171 L223,171 L223,173 L224,173 L224,174 L225,174 L225,175 L224,175 L224,176 L226,176 L226,177 L225,177 L225,178 L226,178 L226,179 L225,179 L225,182 L226,182 L226,184 L227,184 L227,185 L228,185 L228,186 L227,186 L227,188 L228,188 L228,191 L230,191 L230,192 L229,192 L229,193 L228,193 L228,197 L230,197 L230,200 L229,200 L229,201 L230,201 L230,204 L229,204 L229,205 L230,205 L230,208 L231,208 L231,209 L232,209 L232,210 L230,210 L230,213 L232,213 L232,214 L230,214 L230,215 L231,215 L231,216 L232,216 L232,217 L231,217 L231,223 L232,223 L232,225 L233,225 L233,226 L231,226 L231,227 L232,227 L232,228 L233,228 L233,229 L231,229 L231,230 L232,230 L232,233 L231,233 L231,234 L232,234 L232,236 L231,236 L231,242 L232,242 L232,243 L231,243 L231,244 L232,244 L232,246 L231,246 L231,247 L230,247 L230,248 L231,248 L231,250 L230,250 L230,251 L232,251 L232,253 L231,253 L231,252 L230,252 L230,255 L231,255 L231,256 L232,256 L232,257 L229,257 L229,259 L228,259 L228,261 L229,261 L229,262 L230,262 L230,264 L229,264 L229,266 L230,266 L230,269 L228,269 L228,271 L229,271 L229,272 L228,272 L228,276 L226,276 L226,277 L227,277 L227,279 L225,279 L225,280 L224,280 L224,281 L225,281 L225,282 L224,282 L224,285 L225,285 L225,287 L224,287 L224,288 L223,288 L223,289 L224,289 L224,292 L223,292 L223,299 L221,299 L221,302 L220,302 L220,303 L221,303 L221,304 L219,304 L219,305 L218,305 L218,307 L220,307 L220,308 L219,308 L219,309 L217,309 L217,311 L218,311 L218,312 L217,312 L217,315 L216,315 L216,316 L215,316 L215,320 L213,320 L213,323 L212,323 L212,325 L213,325 L213,326 L211,326 L211,327 L210,327 L210,329 L209,329 L209,331 L208,331 L208,332 L209,332 L209,333 L208,333 L208,337 L207,337 L207,339 L205,339 L205,340 L204,340 L204,341 L203,341 L203,342 L204,342 L204,344 L203,344 L203,345 L202,345 L202,347 L200,347 L200,349 L199,349 L199,351 L197,351 L197,352 L196,352 L196,353 L195,353 L195,355 L194,355 L194,356 L193,356 L193,357 L192,357 L192,358 L193,358 L193,360 L191,360 L191,362 L190,362 L190,364 L189,364 L189,366 L188,366 L188,367 L187,367 L187,368 L188,368 L188,369 L186,369 L186,370 L185,370 L185,371 L183,371 L183,375 L180,375 L180,376 L178,376 L178,378 L177,378 L177,382 L176,382 L176,383 L175,383 L175,384 L174,384 L174,385 L173,385 L173,387 L172,387 L172,388 L170,388 L170,389 L172,389 L172,390 L168,390 L168,391 L167,391 L167,392 L166,392 L166,394 L163,394 L163,395 L162,395 L162,396 L159,396 L159,398 L158,398 L158,399 L157,399 L157,401 L156,401 L156,402 L155,402 L155,403 L154,403 L154,405 L151,405 L151,406 L150,406 L150,407 L148,407 L148,408 L146,408 L146,410 L147,410 L147,411 L143,411 L143,412 L142,412 L142,414 L141,414 L141,415 L139,415 L139,417 L137,417 L137,418 L136,418 L136,419 L135,419 L135,420 L133,420 L133,421 L132,421 L132,422 L131,422 L131,423 L130,423 L130,424 L128,424 L128,425 L126,425 L126,426 L122,426 L122,427 L123,427 L123,428 L121,428 L121,429 L119,429 L119,430 L118,430 L118,431 L115,431 L115,432 L114,432 L114,433 L113,433 L113,434 L111,434 L111,435 L108,435 L108,436 L106,436 L106,437 L105,437 L105,438 L101,438 L101,439 L99,439 L99,440 L96,440 L96,441 L93,441 L93,442 L91,442 L91,443 L89,443 L89,444 L88,444 L88,445 L87,445 L87,446 L85,446 L85,447 L83,447 L83,448 L79,448 L79,447 L78,447 L78,448 L77,448 L77,447 L75,447 L75,448 L74,448 L74,449 L73,449 L73,450 L68,450 L68,451 L67,451 L67,450 L65,450 L65,453 L64,453 L64,454 L60,454 L60,453 L57,453 L57,454 L55,454 L55,456 L54,456 L54,455 L52,455 L52,456 L51,456 L51,455 L48,455 L48,456 L47,456 L47,457 L46,457 L46,458 L45,458 L45,457 L43,457 L43,458 L42,458 L42,457 L36,457 L36,459 L35,459 L35,458 L33,458 L33,460 L32,460 L32,459 L31,459 L31,458 L29,458 L29,459 L28,459 L28,460 L26,460 L26,461 L25,461 L25,462 L24,462 L24,461 L22,461 L22,460 L19,460 L19,461 L15,461 L15,460 L14,460 L14,461 L13,461 L13,460 L11,460 L11,461 L9,461 L9,462 L7,462 L7,461 L4,461 L4,462 L-1,462 L-1,461 L-2,461 L-2,460 L-3,460 L-3,461 L-4,461 L-4,460 L-7,460 L-7,462 L-9,462 L-9,461 L-10,461 L-10,460 L-9,460 L-9,459 L-11,459 L-11,461 L-12,461 L-12,460 L-13,460 L-13,459 L-14,459 L-14,461 L-15,461 L-15,460 L-16,460 L-16,459 L-17,459 L-17,460 L-24,460 L-24,462 L-25,462 L-25,460 L-26,460 L-26,459 L-27,459 L-27,460 L-28,460 L-28,459 L-29,459 L-29,460 L-31,460 L-31,458 L-32,458 L-32,459 L-35,459 L-35,457 L-38,457 L-38,458 L-43,458 L-43,457 L-44,457 L-44,455 L-51,455 L-51,456 L-52,456 L-52,455 L-54,455 L-54,454 L-57,454 L-57,453 L-58,453 L-58,454 L-60,454 L-60,453 L-63,453 L-63,452 L-64,452 L-64,451 L-65,451 L-65,452 L-66,452 L-66,450 L-68,450 L-68,451 L-70,451 L-70,450 L-73,450 L-73,449 L-75,449 L-75,448 L-77,448 L-77,446 L-79,446 L-79,447 L-82,447 L-82,448 L-83,448 L-83,447 L-84,447 L-84,445 L-85,445 L-85,444 L-86,444 L-86,443 L-87,443 L-87,444 L-88,444 L-88,443 L-91,443 L-91,442 L-93,442 L-93,441 L-95,441 L-95,440 L-96,440 L-96,439 L-100,439 L-100,438 L-101,438 L-101,437 L-103,437 L-103,436 L-105,436 L-105,435 L-106,435 L-106,433 L-109,433 L-109,432 L-110,432 L-110,431 L-112,431 L-112,430 L-113,430 L-113,429 L-114,429 L-114,428 L-119,428 L-119,427 L-122,427 L-122,426 L-123,426 L-123,424 L-124,424 L-124,423 L-128,423 L-128,422 L-129,422 L-129,421 L-132,421 L-132,422 L-133,422 L-133,419 L-135,419 L-135,417 L-136,417 L-136,416 L-138,416 L-138,414 L-139,414 L-139,413 L-140,413 L-140,414 L-141,414 L-141,412 L-142,412 L-142,411 L-144,411 L-144,409 L-145,409 L-145,408 L-146,408 L-146,407 L-147,407 L-147,406 L-148,406 L-148,405 L-149,405 L-149,404 L-152,404 L-152,402 L-155,402 L-155,401 L-156,401 L-156,399 L-158,399 L-158,398 L-159,398 L-159,399 L-160,399 L-160,397 L-159,397 L-159,396 L-160,396 L-160,395 L-162,395 L-162,393 L-163,393 L-163,391 L-164,391 L-164,389 L-165,389 L-165,388 L-166,388 L-166,387 L-167,387 L-167,386 L-169,386 L-169,384 L-170,384 L-170,383 L-172,383 L-172,382 L-173,382 L-173,381 L-175,381 L-175,379 L-176,379 L-176,376 L-177,376 L-177,375 L-179,375 L-179,373 L-181,373 L-181,371 L-182,371 L-182,370 L-183,370 L-183,368 L-185,368 L-185,365 L-187,365 L-187,364 L-188,364 L-188,365 L-189,365 L-189,364 L-190,364 L-190,363 L-189,363 L-189,362 L-190,362 L-190,360 L-191,360 L-191,358 L-192,358 L-192,355 L-193,355 L-193,354 L-194,354 L-194,353 L-195,353 L-195,351 L-196,351 L-196,350 L-197,350 L-197,348 L-196,348 L-196,347 L-197,347 L-197,345 L-198,345 L-198,344 L-200,344 L-200,340 L-201,340 L-201,339 L-202,339 L-202,338 L-203,338 L-203,337 L-204,337 L-204,336 L-205,336 L-205,335 L-204,335 L-204,334 L-205,334 L-205,333 L-206,333 L-206,332 L-207,332 L-207,331 L-206,331 L-206,330 L-207,330 L-207,328 L-208,328 L-208,326 L-209,326 L-209,325 L-210,325 L-210,323 L-211,323 L-211,320 L-212,320 L-212,318 L-213,318 L-213,315 L-214,315 L-214,311 L-216,311 L-216,310 L-214,310 L-214,308 L-216,308 L-216,303 L-217,303 L-217,302 L-218,302 L-218,301 L-219,301 L-219,300 L-218,300 L-218,298 L-219,298 L-219,297 L-218,297 L-218,295 L-219,295 L-219,294 L-220,294 L-220,293 L-219,293 L-219,291 L-220,291 L-220,290 L-221,290 L-221,288 L-220,288 L-220,287 L-221,287 L-221,285 L-222,285 L-222,284 L-224,284 L-224,282 L-222,282 L-222,280 L-223,280 L-223,278 L-225,278 L-225,276 L-224,276 L-224,274 L-226,274 L-226,273 L-225,273 L-225,272 L-223,272 L-223,270 L-224,270 L-224,271 L-226,271 L-226,270 L-225,270 L-225,269 L-224,269 L-224,268 L-226,268 L-226,265 L-227,265 L-227,264 L-224,264 L-224,261 L-225,261 L-225,260 L-226,260 L-226,259 L-227,259 L-227,258 L-228,258 L-228,257 L-226,257 L-226,255 L-227,255 L-227,253 L-226,253 L-226,252 L-227,252 L-227,251 L-229,251 L-229,250 L-227,250 L-227,247 L-226,247 L-226,246 L-227,246 L-227,244 L-229,244 L-229,242 L-228,242 L-228,241 L-229,241 L-229,240 L-227,240 L-227,238 L-228,238 L-228,237 L-229,237 L-229,236 L-230,236 L-230,234 L-229,234 L-229,233 L-228,233 L-228,230 L-227,230 L-227,227 L-228,227 L-228,216 L-229,216 L-229,213 L-228,213 L-228,212 L-227,212 L-227,211 L-229,211 L-229,210 L-227,210 L-227,207 L-226,207 L-226,205 L-227,205 L-227,204 L-225,204 L-225,201 L-226,201 L-226,200 L-224,200 L-224,198 L-225,198 L-225,196 L-224,196 L-224,195 L-225,195 L-225,194 L-224,194 L-224,192 L-223,192 L-223,191 L-222,191 L-222,190 L-223,190 L-223,188 L-224,188 L-224,187 L-225,187 L-225,186 L-224,186 L-224,181 L-223,181 L-223,180 L-224,180 L-224,178 L-223,178 L-223,175 L-222,175 L-222,174 L-223,174 L-223,173 L-221,173 L-221,171 L-220,171 L-220,165 L-219,165 L-219,164 L-218,164 L-218,163 L-217,163 L-217,162 L-218,162 L-218,161 L-219,161 L-219,160 L-218,160 L-218,158 L-217,158 L-217,156 L-216,156 L-216,154 L-214,154 L-214,152 L-213,152 L-213,151 L-212,151 L-212,150 L-213,150 L-213,149 L-214,149 L-214,148 L-212,148 L-212,146 L-213,146 L-213,145 L-211,145 L-211,141 L-210,141 L-210,139 L-209,139 L-209,138 L-208,138 L-208,137 L-210,137 L-210,136 L-208,136 L-208,134 L-207,134 L-207,131 L-206,131 L-206,129 L-204,129 L-204,125 L-203,125 L-203,123 L-202,123 L-202,122 L-201,122 L-201,120 L-200,120 L-200,121 L-199,121 L-199,119 L-198,119 L-198,118 L-199,118 L-199,115 L-196,115 L-196,114 L-198,114 L-198,113 L-195,113 L-195,112 L-194,112 L-194,110 L-193,110 L-193,107 L-192,107 L-192,106 L-191,106 L-191,103 L-190,103 L-190,102 L-189,102 L-189,101 L-188,101 L-188,100 L-185,100 L-185,97 L-183,97 L-183,95 L-182,95 L-182,94 L-181,94 L-181,92 L-180,92 L-180,90 L-179,90 L-179,89 L-177,89 L-177,87 L-179,87 L-179,86 L-175,86 L-175,84 L-174,84 L-174,83 L-175,83 L-175,82 L-173,82 L-173,81 L-172,81 L-172,80 L-170,80 L-170,79 L-169,79 L-169,76 L-168,76 L-168,74 L-167,74 L-167,73 L-166,73 L-166,72 L-165,72 L-165,71 L-162,71 L-162,68 L-160,68 L-160,66 L-159,66 L-159,65 L-158,65 L-158,64 L-157,64 L-157,63 L-156,63 L-156,61 L-155,61 L-155,60 L-153,60 L-153,59 L-152,59 L-152,58 L-151,58 L-151,57 L-150,57 L-150,56 L-148,56 L-148,55 L-145,55 L-145,54 L-144,54 L-144,53 L-142,53 L-142,52 L-141,52 L-141,51 L-140,51 L-140,50 L-139,50 L-139,48 L-138,48 L-138,47 L-137,47 L-137,46 L-136,46 L-136,43 L-135,43 L-135,44 L-134,44 L-134,42 L-133,42 L-133,41 L-132,41 L-132,42 L-129,42 L-129,40 L-126,40 L-126,39 L-125,39 L-125,38 L-124,38 L-124,39 L-123,39 L-123,38 L-122,38 L-122,37 L-121,37 L-121,36 L-120,36 L-120,35 L-119,35 L-119,34 L-118,34 L-118,33 L-116,33 L-116,32 L-115,32 L-115,31 L-112,31 L-112,30 L-111,30 L-111,29 L-110,29 L-110,28 L-109,28 L-109,27 L-105,27 L-105,26 L-102,26 L-102,25 L-101,25 L-101,24 L-100,24 L-100,23 L-96,23 L-96,22 L-95,22 L-95,21 L-94,21 L-94,22 L-93,22 L-93,21 L-92,21 L-92,20 L-90,20 L-90,19 L-88,19 L-88,18 L-87,18 L-87,17 L-84,17 L-84,16 L-81,16 L-81,15 L-78,15 L-78,14 L-75,14 L-75,15 L-74,15 L-74,14 L-70,14 L-70,13 L-69,13 L-69,12 L-66,12 L-66,10 L-60,10 L-60,9 L-59,9 L-59,8 L-57,8 L-57,6 L-56,6 L-56,7 L-54,7 L-54,6 L-53,6 L-53,5 L-52,5 L-52,7 L-51,7 L-51,6 L-49,6 L-49,7 L-47,7 L-47,6 L-45,6 L-45,5 L-42,5 L-42,6 L-37,6 L-37,5 L-35,5 L-35,3 L-31,3 L-31,2 L-29,2 L-29,3 L-27,3 L-27,2 L-25,2 L-25,3 L-24,3 L-24,2 L-19,2 L-19,1 L-16,1 L-16,2 L-12,2 L-12,3 L-10,3 L-10,2 L-6,2 L-6,1 L-5,1 L-5,2 L-3,2 L-3,1 L-2,1 L-2,2 L-1,2 L-1,1 L0,1 Z M31,3 L31,4 L32,4 L32,3 Z M-45,6 L-45,7 L-44,7 L-44,6 Z M74,98 L74,99 L75,99 L75,98 Z M219,164 L219,165 L221,165 L221,164 Z M-229,235 L-229,236 L-228,236 L-228,235 Z M-227,260 L-226,260 L-226,261 L-227,261 Z M-228,261 L-227,261 L-227,262 L-228,262 Z M119,430 L120,430 L120,431 L119,431 Z " fill="#052D3C" transform="translate(283,46)"/>
<path d="M0,0 L12,0 L12,2 L13,2 L13,1 L17,1 L17,0 L22,0 L22,1 L23,1 L23,2 L25,2 L25,1 L26,1 L26,0 L33,0 L33,1 L39,1 L39,2 L41,2 L41,3 L43,3 L43,4 L48,4 L48,5 L49,5 L49,4 L54,4 L54,6 L58,6 L58,7 L61,7 L61,6 L63,6 L63,7 L68,7 L68,8 L69,8 L69,10 L72,10 L72,11 L77,11 L77,12 L78,12 L78,13 L81,13 L81,14 L84,14 L84,15 L87,15 L87,17 L91,17 L91,18 L99,18 L99,19 L100,19 L100,20 L102,20 L102,21 L103,21 L103,22 L104,22 L104,23 L105,23 L105,25 L106,25 L106,26 L107,26 L107,27 L110,27 L110,28 L113,28 L113,29 L114,29 L114,30 L115,30 L115,31 L117,31 L117,32 L118,32 L118,33 L119,33 L119,34 L121,34 L121,35 L122,35 L122,36 L124,36 L124,37 L127,37 L127,38 L129,38 L129,40 L130,40 L130,41 L131,41 L131,40 L133,40 L133,41 L134,41 L134,43 L138,43 L138,44 L139,44 L139,45 L138,45 L138,46 L140,46 L140,47 L141,47 L141,48 L142,48 L142,52 L144,52 L144,53 L145,53 L145,54 L146,54 L146,55 L150,55 L150,56 L151,56 L151,57 L152,57 L152,59 L153,59 L153,60 L155,60 L155,61 L156,61 L156,63 L157,63 L157,64 L158,64 L158,66 L159,66 L159,67 L160,67 L160,68 L163,68 L163,71 L165,71 L165,73 L166,73 L166,74 L168,74 L168,75 L169,75 L169,77 L171,77 L171,78 L173,78 L173,81 L174,81 L174,83 L173,83 L173,84 L174,84 L174,85 L175,85 L175,88 L176,88 L176,90 L177,90 L177,92 L178,92 L178,93 L179,93 L179,96 L181,96 L181,97 L182,97 L182,98 L183,98 L183,99 L184,99 L184,101 L185,101 L185,107 L186,107 L186,108 L187,108 L187,109 L188,109 L188,111 L189,111 L189,112 L192,112 L192,113 L191,113 L191,115 L192,115 L192,117 L193,117 L193,118 L191,118 L191,119 L193,119 L193,122 L194,122 L194,123 L195,123 L195,127 L196,127 L196,129 L197,129 L197,132 L198,132 L198,134 L199,134 L199,137 L200,137 L200,138 L201,138 L201,141 L202,141 L202,151 L203,151 L203,152 L202,152 L202,153 L204,153 L204,154 L205,154 L205,156 L207,156 L207,159 L206,159 L206,164 L207,164 L207,169 L208,169 L208,175 L209,175 L209,177 L208,177 L208,184 L209,184 L209,185 L210,185 L210,191 L207,191 L207,192 L208,192 L208,194 L210,194 L210,195 L209,195 L209,197 L208,197 L208,205 L209,205 L209,213 L208,213 L208,220 L206,220 L206,223 L207,223 L207,225 L206,225 L206,230 L205,230 L205,235 L204,235 L204,237 L203,237 L203,239 L202,239 L202,245 L201,245 L201,248 L200,248 L200,251 L199,251 L199,253 L200,253 L200,255 L199,255 L199,256 L198,256 L198,258 L197,258 L197,259 L196,259 L196,265 L195,265 L195,267 L193,267 L193,273 L192,273 L192,274 L191,274 L191,278 L190,278 L190,280 L189,280 L189,282 L188,282 L188,284 L187,284 L187,285 L185,285 L185,288 L184,288 L184,290 L183,290 L183,291 L182,291 L182,295 L181,295 L181,297 L180,297 L180,299 L179,299 L179,300 L178,300 L178,301 L176,301 L176,302 L175,302 L175,303 L174,303 L174,306 L173,306 L173,307 L172,307 L172,309 L171,309 L171,310 L170,310 L170,312 L169,312 L169,314 L168,314 L168,316 L167,316 L167,317 L166,317 L166,318 L165,318 L165,319 L164,319 L164,320 L162,320 L162,317 L161,317 L161,313 L162,313 L162,312 L161,312 L161,307 L160,307 L160,305 L161,305 L161,304 L159,304 L159,302 L158,302 L158,301 L159,301 L159,300 L158,300 L158,295 L157,295 L157,293 L155,293 L155,289 L154,289 L154,288 L153,288 L153,284 L152,284 L152,283 L150,283 L150,279 L149,279 L149,274 L148,274 L148,273 L147,273 L147,270 L146,270 L146,269 L145,269 L145,265 L143,265 L143,264 L142,264 L142,260 L139,260 L139,259 L138,259 L138,258 L137,258 L137,257 L136,257 L136,256 L135,256 L135,252 L134,252 L134,251 L133,251 L133,248 L132,248 L132,247 L130,247 L130,245 L129,245 L129,244 L127,244 L127,241 L124,241 L124,238 L122,238 L122,237 L121,237 L121,236 L120,236 L120,235 L119,235 L119,234 L118,234 L118,233 L113,233 L113,231 L111,231 L111,230 L110,230 L110,229 L109,229 L109,228 L108,228 L108,225 L106,225 L106,224 L103,224 L103,222 L102,222 L102,221 L101,221 L101,220 L100,220 L100,219 L99,219 L99,218 L96,218 L96,216 L95,216 L95,215 L92,215 L92,214 L91,214 L91,213 L90,213 L90,212 L86,212 L86,211 L81,211 L81,209 L78,209 L78,208 L74,208 L74,207 L72,207 L72,206 L71,206 L71,204 L70,204 L70,203 L68,203 L68,202 L65,202 L65,203 L63,203 L63,202 L61,202 L61,201 L60,201 L60,200 L59,200 L59,199 L56,199 L56,198 L52,198 L52,199 L50,199 L50,198 L49,198 L49,197 L46,197 L46,196 L41,196 L41,195 L40,195 L40,196 L37,196 L37,195 L29,195 L29,194 L28,194 L28,195 L26,195 L26,194 L12,194 L12,195 L4,195 L4,194 L1,194 L1,193 L0,193 L0,194 L-1,194 L-1,196 L-2,196 L-2,195 L-8,195 L-8,196 L-9,196 L-9,195 L-12,195 L-12,196 L-17,196 L-17,197 L-20,197 L-20,198 L-27,198 L-27,199 L-30,199 L-30,200 L-31,200 L-31,201 L-32,201 L-32,202 L-34,202 L-34,203 L-36,203 L-36,202 L-39,202 L-39,204 L-42,204 L-42,206 L-43,206 L-43,207 L-46,207 L-46,208 L-49,208 L-49,209 L-52,209 L-52,211 L-57,211 L-57,212 L-61,212 L-61,213 L-62,213 L-62,214 L-63,214 L-63,215 L-65,215 L-65,216 L-66,216 L-66,217 L-67,217 L-67,218 L-70,218 L-70,219 L-71,219 L-71,221 L-72,221 L-72,222 L-73,222 L-73,223 L-74,223 L-74,224 L-77,224 L-77,225 L-79,225 L-79,228 L-80,228 L-80,229 L-81,229 L-81,230 L-83,230 L-83,231 L-84,231 L-84,232 L-85,232 L-85,233 L-89,233 L-89,234 L-90,234 L-90,235 L-91,235 L-91,236 L-92,236 L-92,238 L-95,238 L-95,241 L-98,241 L-98,244 L-100,244 L-100,246 L-101,246 L-101,247 L-103,247 L-103,248 L-104,248 L-104,251 L-105,251 L-105,252 L-106,252 L-106,257 L-108,257 L-108,258 L-110,258 L-110,260 L-111,260 L-111,261 L-112,261 L-112,262 L-113,262 L-113,264 L-114,264 L-114,265 L-115,265 L-115,266 L-116,266 L-116,269 L-117,269 L-117,271 L-118,271 L-118,273 L-119,273 L-119,274 L-120,274 L-120,277 L-119,277 L-119,278 L-121,278 L-121,283 L-123,283 L-123,285 L-124,285 L-124,288 L-125,288 L-125,289 L-126,289 L-126,290 L-127,290 L-127,293 L-128,293 L-128,295 L-129,295 L-129,300 L-130,300 L-130,301 L-129,301 L-129,302 L-130,302 L-130,305 L-131,305 L-131,307 L-132,307 L-132,317 L-133,317 L-133,320 L-134,320 L-134,324 L-133,324 L-133,325 L-134,325 L-134,326 L-135,326 L-135,323 L-136,323 L-136,321 L-138,321 L-138,319 L-140,319 L-140,318 L-142,318 L-142,316 L-143,316 L-143,314 L-144,314 L-144,311 L-145,311 L-145,309 L-146,309 L-146,308 L-147,308 L-147,306 L-148,306 L-148,305 L-149,305 L-149,304 L-151,304 L-151,303 L-152,303 L-152,301 L-153,301 L-153,299 L-154,299 L-154,295 L-155,295 L-155,294 L-156,294 L-156,291 L-158,291 L-158,288 L-160,288 L-160,287 L-161,287 L-161,286 L-162,286 L-162,281 L-163,281 L-163,280 L-164,280 L-164,276 L-165,276 L-165,275 L-167,275 L-167,273 L-168,273 L-168,272 L-169,272 L-169,269 L-170,269 L-170,265 L-171,265 L-171,260 L-172,260 L-172,255 L-175,255 L-175,250 L-174,250 L-174,249 L-175,249 L-175,245 L-176,245 L-176,242 L-177,242 L-177,241 L-178,241 L-178,239 L-180,239 L-180,238 L-181,238 L-181,229 L-182,229 L-182,228 L-183,228 L-183,227 L-182,227 L-182,226 L-181,226 L-181,222 L-182,222 L-182,221 L-180,221 L-180,220 L-181,220 L-181,218 L-182,218 L-182,217 L-183,217 L-183,210 L-184,210 L-184,208 L-183,208 L-183,206 L-184,206 L-184,199 L-183,199 L-183,198 L-185,198 L-185,196 L-184,196 L-184,195 L-185,195 L-185,193 L-184,193 L-184,192 L-183,192 L-183,191 L-181,191 L-181,189 L-185,189 L-185,187 L-184,187 L-184,182 L-183,182 L-183,181 L-182,181 L-182,179 L-183,179 L-183,178 L-182,178 L-182,175 L-181,175 L-181,168 L-180,168 L-180,166 L-181,166 L-181,164 L-182,164 L-182,162 L-181,162 L-181,157 L-180,157 L-180,156 L-181,156 L-181,153 L-180,153 L-180,150 L-178,150 L-178,147 L-177,147 L-177,144 L-179,144 L-179,143 L-178,143 L-178,141 L-177,141 L-177,142 L-176,142 L-176,141 L-175,141 L-175,139 L-173,139 L-173,132 L-172,132 L-172,130 L-171,130 L-171,124 L-170,124 L-170,123 L-169,123 L-169,122 L-170,122 L-170,120 L-169,120 L-169,119 L-168,119 L-168,117 L-167,117 L-167,116 L-165,116 L-165,112 L-164,112 L-164,110 L-163,110 L-163,108 L-162,108 L-162,107 L-161,107 L-161,104 L-160,104 L-160,103 L-159,103 L-159,101 L-157,101 L-157,98 L-156,98 L-156,96 L-155,96 L-155,94 L-154,94 L-154,92 L-152,92 L-152,89 L-151,89 L-151,88 L-150,88 L-150,87 L-148,87 L-148,85 L-147,85 L-147,84 L-146,84 L-146,82 L-145,82 L-145,81 L-144,81 L-144,80 L-143,80 L-143,78 L-142,78 L-142,77 L-141,77 L-141,76 L-140,76 L-140,75 L-139,75 L-139,74 L-138,74 L-138,72 L-137,72 L-137,70 L-136,70 L-136,68 L-135,68 L-135,67 L-134,67 L-134,65 L-133,65 L-133,64 L-131,64 L-131,62 L-130,62 L-130,61 L-128,61 L-128,60 L-126,60 L-126,59 L-125,59 L-125,57 L-123,57 L-123,56 L-122,56 L-122,55 L-121,55 L-121,54 L-120,54 L-120,53 L-118,53 L-118,52 L-117,52 L-117,51 L-116,51 L-116,50 L-115,50 L-115,47 L-113,47 L-113,46 L-110,46 L-110,45 L-109,45 L-109,44 L-108,44 L-108,42 L-107,42 L-107,40 L-106,40 L-106,39 L-105,39 L-105,38 L-102,38 L-102,37 L-101,37 L-101,36 L-99,36 L-99,34 L-97,34 L-97,31 L-91,31 L-91,30 L-88,30 L-88,29 L-87,29 L-87,28 L-84,28 L-84,26 L-83,26 L-83,25 L-79,25 L-79,24 L-78,24 L-78,22 L-76,22 L-76,21 L-74,21 L-74,20 L-73,20 L-73,19 L-72,19 L-72,18 L-68,18 L-68,17 L-65,17 L-65,16 L-64,16 L-64,15 L-62,15 L-62,16 L-60,16 L-60,15 L-59,15 L-59,14 L-55,14 L-55,13 L-52,13 L-52,12 L-51,12 L-51,10 L-45,10 L-45,8 L-44,8 L-44,9 L-42,9 L-42,8 L-41,8 L-41,7 L-34,7 L-34,8 L-33,8 L-33,7 L-32,7 L-32,5 L-31,5 L-31,6 L-29,6 L-29,5 L-28,5 L-28,4 L-24,4 L-24,3 L-23,3 L-23,4 L-21,4 L-21,2 L-19,2 L-19,3 L-17,3 L-17,2 L-15,2 L-15,3 L-11,3 L-11,2 L-3,2 L-3,1 L-2,1 L-2,2 L-1,2 L-1,1 L0,1 Z M85,63 L85,64 L86,64 L86,63 Z " fill="#D1E5ED" transform="translate(272,81)"/>
<path d="M0,0 L13,0 L13,1 L14,1 L14,2 L15,2 L15,1 L16,1 L16,2 L22,2 L22,1 L24,1 L24,2 L27,2 L27,3 L36,3 L36,4 L37,4 L37,5 L40,5 L40,6 L44,6 L44,8 L47,8 L47,9 L55,9 L55,10 L57,10 L57,12 L58,12 L58,13 L59,13 L59,14 L61,14 L61,15 L62,15 L62,16 L67,16 L67,17 L68,17 L68,18 L70,18 L70,19 L71,19 L71,21 L72,21 L72,22 L73,22 L73,23 L74,23 L74,24 L75,24 L75,25 L78,25 L78,26 L81,26 L81,27 L82,27 L82,28 L83,28 L83,31 L85,31 L85,33 L88,33 L88,34 L89,34 L89,37 L90,37 L90,38 L91,38 L91,39 L92,39 L92,40 L94,40 L94,41 L95,41 L95,43 L96,43 L96,45 L98,45 L98,46 L100,46 L100,47 L101,47 L101,49 L102,49 L102,50 L103,50 L103,52 L104,52 L104,54 L105,54 L105,58 L107,58 L107,59 L108,59 L108,60 L109,60 L109,61 L111,61 L111,63 L112,63 L112,68 L113,68 L113,69 L114,69 L114,72 L115,72 L115,74 L116,74 L116,77 L117,77 L117,81 L118,81 L118,82 L119,82 L119,84 L121,84 L121,95 L122,95 L122,94 L123,94 L123,97 L121,97 L121,98 L120,98 L120,99 L121,99 L121,100 L123,100 L123,103 L122,103 L122,108 L120,108 L120,109 L121,109 L121,113 L122,113 L122,114 L121,114 L121,115 L120,115 L120,116 L121,116 L121,119 L122,119 L122,123 L121,123 L121,124 L118,124 L118,126 L117,126 L117,127 L115,127 L115,128 L114,128 L114,130 L110,130 L110,131 L109,131 L109,132 L108,132 L108,133 L106,133 L106,134 L105,134 L105,135 L103,135 L103,136 L102,136 L102,138 L100,138 L100,139 L99,139 L99,140 L96,140 L96,141 L94,141 L94,142 L93,142 L93,143 L91,143 L91,144 L87,144 L87,145 L85,145 L85,146 L82,146 L82,148 L81,148 L81,149 L80,149 L80,150 L77,150 L77,151 L71,151 L71,152 L67,152 L67,154 L66,154 L66,155 L62,155 L62,156 L58,156 L58,157 L57,157 L57,158 L54,158 L54,159 L50,159 L50,158 L49,158 L49,159 L46,159 L46,160 L41,160 L41,161 L34,161 L34,162 L31,162 L31,163 L25,163 L25,162 L23,162 L23,163 L12,163 L12,164 L9,164 L9,165 L0,165 L0,164 L-9,164 L-9,163 L-11,163 L-11,164 L-12,164 L-12,162 L-14,162 L-14,163 L-15,163 L-15,162 L-19,162 L-19,163 L-21,163 L-21,164 L-23,164 L-23,162 L-24,162 L-24,161 L-25,161 L-25,162 L-29,162 L-29,161 L-34,161 L-34,160 L-38,160 L-38,159 L-39,159 L-39,160 L-40,160 L-40,159 L-42,159 L-42,158 L-49,158 L-49,157 L-50,157 L-50,156 L-51,156 L-51,157 L-52,157 L-52,156 L-53,156 L-53,155 L-55,155 L-55,154 L-56,154 L-56,153 L-61,153 L-61,151 L-64,151 L-64,152 L-66,152 L-66,151 L-67,151 L-67,150 L-69,150 L-69,149 L-70,149 L-70,150 L-71,150 L-71,149 L-75,149 L-75,147 L-78,147 L-78,145 L-82,145 L-82,144 L-86,144 L-86,143 L-88,143 L-88,142 L-89,142 L-89,141 L-91,141 L-91,140 L-92,140 L-92,139 L-95,139 L-95,138 L-94,138 L-94,137 L-95,137 L-95,135 L-98,135 L-98,134 L-99,134 L-99,133 L-100,133 L-100,132 L-102,132 L-102,131 L-103,131 L-103,130 L-105,130 L-105,129 L-106,129 L-106,127 L-108,127 L-108,126 L-111,126 L-111,119 L-110,119 L-110,117 L-109,117 L-109,116 L-108,116 L-108,115 L-109,115 L-109,114 L-110,114 L-110,109 L-109,109 L-109,108 L-111,108 L-111,102 L-112,102 L-112,101 L-111,101 L-111,100 L-110,100 L-110,99 L-109,99 L-109,97 L-112,97 L-112,94 L-111,94 L-111,95 L-110,95 L-110,86 L-109,86 L-109,84 L-107,84 L-107,81 L-106,81 L-106,77 L-105,77 L-105,74 L-104,74 L-104,72 L-103,72 L-103,69 L-102,69 L-102,67 L-101,67 L-101,63 L-100,63 L-100,62 L-99,62 L-99,61 L-98,61 L-98,60 L-97,60 L-97,59 L-96,59 L-96,58 L-94,58 L-94,55 L-93,55 L-93,53 L-92,53 L-92,51 L-91,51 L-91,49 L-90,49 L-90,48 L-89,48 L-89,46 L-87,46 L-87,45 L-85,45 L-85,43 L-84,43 L-84,41 L-83,41 L-83,40 L-81,40 L-81,39 L-80,39 L-80,37 L-78,37 L-78,35 L-77,35 L-77,33 L-74,33 L-74,31 L-72,31 L-72,28 L-71,28 L-71,27 L-70,27 L-70,26 L-67,26 L-67,25 L-64,25 L-64,24 L-63,24 L-63,23 L-62,23 L-62,22 L-61,22 L-61,21 L-60,21 L-60,19 L-59,19 L-59,18 L-56,18 L-56,16 L-54,16 L-54,17 L-53,17 L-53,16 L-51,16 L-51,15 L-50,15 L-50,14 L-47,14 L-47,12 L-46,12 L-46,11 L-45,11 L-45,10 L-44,10 L-44,9 L-36,9 L-36,8 L-34,8 L-34,7 L-33,7 L-33,6 L-29,6 L-29,5 L-26,5 L-26,4 L-25,4 L-25,3 L-16,3 L-16,2 L-12,2 L-12,1 L-11,1 L-11,2 L-3,2 L-3,1 L0,1 Z " fill="#FDAE41" transform="translate(281,309)"/>
<path d="M0,0 L1,0 L1,1 L4,1 L4,2 L12,2 L12,1 L26,1 L26,2 L28,2 L28,1 L29,1 L29,2 L37,2 L37,3 L40,3 L40,2 L41,2 L41,3 L46,3 L46,4 L49,4 L49,5 L50,5 L50,6 L52,6 L52,5 L56,5 L56,6 L59,6 L59,7 L60,7 L60,8 L61,8 L61,9 L63,9 L63,10 L65,10 L65,9 L68,9 L68,10 L70,10 L70,11 L71,11 L71,13 L72,13 L72,14 L74,14 L74,15 L78,15 L78,16 L81,16 L81,18 L86,18 L86,19 L90,19 L90,20 L91,20 L91,21 L92,21 L92,22 L95,22 L95,23 L96,23 L96,25 L99,25 L99,26 L100,26 L100,27 L101,27 L101,28 L102,28 L102,29 L103,29 L103,31 L106,31 L106,32 L108,32 L108,35 L109,35 L109,36 L110,36 L110,37 L111,37 L111,38 L113,38 L113,40 L118,40 L118,41 L119,41 L119,42 L120,42 L120,43 L121,43 L121,44 L122,44 L122,45 L124,45 L124,48 L127,48 L127,51 L129,51 L129,52 L130,52 L130,54 L132,54 L132,55 L133,55 L133,58 L134,58 L134,59 L135,59 L135,63 L136,63 L136,64 L137,64 L137,65 L138,65 L138,66 L139,66 L139,67 L142,67 L142,71 L143,71 L143,72 L145,72 L145,76 L146,76 L146,77 L147,77 L147,80 L148,80 L148,81 L149,81 L149,86 L150,86 L150,90 L152,90 L152,91 L153,91 L153,95 L154,95 L154,96 L155,96 L155,100 L157,100 L157,102 L158,102 L158,107 L159,107 L159,108 L158,108 L158,109 L159,109 L159,111 L161,111 L161,112 L160,112 L160,114 L161,114 L161,119 L162,119 L162,120 L161,120 L161,124 L162,124 L162,127 L161,127 L161,134 L160,134 L160,154 L161,154 L161,164 L162,164 L162,178 L161,178 L161,179 L159,179 L159,180 L157,180 L157,182 L158,182 L158,183 L154,183 L154,184 L153,184 L153,186 L152,186 L152,187 L150,187 L150,189 L148,189 L148,190 L147,190 L147,191 L146,191 L146,192 L144,192 L144,193 L143,193 L143,194 L142,194 L142,195 L141,195 L141,196 L139,196 L139,197 L137,197 L137,198 L133,198 L133,199 L134,199 L134,200 L132,200 L132,201 L130,201 L130,202 L129,202 L129,203 L126,203 L126,204 L125,204 L125,205 L124,205 L124,206 L122,206 L122,207 L119,207 L119,208 L117,208 L117,209 L116,209 L116,210 L112,210 L112,211 L110,211 L110,212 L107,212 L107,213 L104,213 L104,214 L102,214 L102,215 L100,215 L100,216 L99,216 L99,217 L98,217 L98,218 L96,218 L96,219 L94,219 L94,220 L90,220 L90,219 L89,219 L89,220 L88,220 L88,219 L86,219 L86,220 L85,220 L85,221 L84,221 L84,222 L79,222 L79,223 L78,223 L78,222 L76,222 L76,225 L75,225 L75,226 L71,226 L71,225 L68,225 L68,226 L66,226 L66,228 L65,228 L65,227 L63,227 L63,228 L62,228 L62,227 L59,227 L59,228 L58,228 L58,229 L57,229 L57,230 L56,230 L56,229 L54,229 L54,230 L53,230 L53,229 L47,229 L47,231 L46,231 L46,230 L44,230 L44,232 L43,232 L43,231 L42,231 L42,230 L40,230 L40,231 L39,231 L39,232 L37,232 L37,233 L36,233 L36,234 L35,234 L35,233 L33,233 L33,232 L30,232 L30,233 L26,233 L26,232 L25,232 L25,233 L24,233 L24,232 L22,232 L22,233 L20,233 L20,234 L18,234 L18,233 L15,233 L15,234 L10,234 L10,233 L9,233 L9,232 L8,232 L8,233 L7,233 L7,232 L4,232 L4,234 L2,234 L2,233 L1,233 L1,232 L2,232 L2,231 L0,231 L0,233 L-1,233 L-1,232 L-2,232 L-2,231 L-3,231 L-3,233 L-4,233 L-4,232 L-5,232 L-5,231 L-6,231 L-6,232 L-13,232 L-13,234 L-14,234 L-14,232 L-15,232 L-15,231 L-16,231 L-16,232 L-17,232 L-17,231 L-18,231 L-18,232 L-20,232 L-20,230 L-21,230 L-21,231 L-24,231 L-24,229 L-27,229 L-27,230 L-32,230 L-32,229 L-33,229 L-33,227 L-40,227 L-40,228 L-41,228 L-41,227 L-43,227 L-43,226 L-46,226 L-46,225 L-47,225 L-47,226 L-49,226 L-49,225 L-52,225 L-52,224 L-53,224 L-53,223 L-54,223 L-54,224 L-55,224 L-55,222 L-57,222 L-57,223 L-59,223 L-59,222 L-62,222 L-62,221 L-64,221 L-64,220 L-66,220 L-66,218 L-68,218 L-68,219 L-71,219 L-71,220 L-72,220 L-72,219 L-73,219 L-73,217 L-74,217 L-74,216 L-75,216 L-75,215 L-76,215 L-76,216 L-77,216 L-77,215 L-80,215 L-80,214 L-82,214 L-82,213 L-84,213 L-84,212 L-85,212 L-85,211 L-89,211 L-89,210 L-90,210 L-90,209 L-92,209 L-92,208 L-94,208 L-94,207 L-95,207 L-95,205 L-98,205 L-98,204 L-99,204 L-99,203 L-101,203 L-101,202 L-102,202 L-102,201 L-103,201 L-103,200 L-108,200 L-108,199 L-111,199 L-111,198 L-112,198 L-112,196 L-113,196 L-113,195 L-117,195 L-117,194 L-118,194 L-118,193 L-121,193 L-121,194 L-122,194 L-122,191 L-124,191 L-124,189 L-125,189 L-125,188 L-126,188 L-126,180 L-127,180 L-127,175 L-128,175 L-128,170 L-129,170 L-129,166 L-130,166 L-130,161 L-131,161 L-131,158 L-132,158 L-132,153 L-133,153 L-133,146 L-134,146 L-134,137 L-135,137 L-135,133 L-134,133 L-134,132 L-133,132 L-133,131 L-134,131 L-134,127 L-133,127 L-133,124 L-132,124 L-132,114 L-131,114 L-131,112 L-130,112 L-130,109 L-129,109 L-129,108 L-130,108 L-130,107 L-129,107 L-129,102 L-128,102 L-128,100 L-127,100 L-127,97 L-126,97 L-126,96 L-125,96 L-125,95 L-124,95 L-124,92 L-123,92 L-123,90 L-121,90 L-121,85 L-119,85 L-119,84 L-120,84 L-120,81 L-119,81 L-119,80 L-118,80 L-118,78 L-117,78 L-117,76 L-116,76 L-116,73 L-115,73 L-115,72 L-114,72 L-114,71 L-113,71 L-113,69 L-112,69 L-112,68 L-111,68 L-111,67 L-110,67 L-110,65 L-108,65 L-108,64 L-106,64 L-106,59 L-105,59 L-105,58 L-104,58 L-104,55 L-103,55 L-103,54 L-101,54 L-101,53 L-100,53 L-100,51 L-98,51 L-98,48 L-95,48 L-95,45 L-92,45 L-92,43 L-91,43 L-91,42 L-90,42 L-90,41 L-89,41 L-89,40 L-85,40 L-85,39 L-84,39 L-84,38 L-83,38 L-83,37 L-81,37 L-81,36 L-80,36 L-80,35 L-79,35 L-79,32 L-77,32 L-77,31 L-74,31 L-74,30 L-73,30 L-73,29 L-72,29 L-72,28 L-71,28 L-71,26 L-70,26 L-70,25 L-67,25 L-67,24 L-66,24 L-66,23 L-65,23 L-65,22 L-63,22 L-63,21 L-62,21 L-62,20 L-61,20 L-61,19 L-57,19 L-57,18 L-52,18 L-52,16 L-49,16 L-49,15 L-46,15 L-46,14 L-43,14 L-43,13 L-42,13 L-42,11 L-39,11 L-39,9 L-36,9 L-36,10 L-34,10 L-34,9 L-32,9 L-32,8 L-31,8 L-31,7 L-30,7 L-30,6 L-27,6 L-27,5 L-20,5 L-20,4 L-17,4 L-17,3 L-12,3 L-12,2 L-9,2 L-9,3 L-8,3 L-8,2 L-2,2 L-2,3 L-1,3 L-1,1 L0,1 Z M9,35 L9,36 L6,36 L6,37 L-2,37 L-2,36 L-3,36 L-3,37 L-7,37 L-7,38 L-16,38 L-16,39 L-17,39 L-17,40 L-20,40 L-20,41 L-24,41 L-24,42 L-25,42 L-25,43 L-27,43 L-27,44 L-35,44 L-35,45 L-36,45 L-36,46 L-37,46 L-37,47 L-38,47 L-38,49 L-41,49 L-41,50 L-42,50 L-42,51 L-44,51 L-44,52 L-45,52 L-45,51 L-47,51 L-47,53 L-50,53 L-50,54 L-51,54 L-51,56 L-52,56 L-52,57 L-53,57 L-53,58 L-54,58 L-54,59 L-55,59 L-55,60 L-58,60 L-58,61 L-61,61 L-61,62 L-62,62 L-62,63 L-63,63 L-63,66 L-65,66 L-65,68 L-68,68 L-68,70 L-69,70 L-69,72 L-71,72 L-71,74 L-72,74 L-72,75 L-74,75 L-74,76 L-75,76 L-75,78 L-76,78 L-76,80 L-78,80 L-78,81 L-80,81 L-80,83 L-81,83 L-81,84 L-82,84 L-82,86 L-83,86 L-83,88 L-84,88 L-84,90 L-85,90 L-85,93 L-87,93 L-87,94 L-88,94 L-88,95 L-89,95 L-89,96 L-90,96 L-90,97 L-91,97 L-91,98 L-92,98 L-92,102 L-93,102 L-93,104 L-94,104 L-94,107 L-95,107 L-95,109 L-96,109 L-96,112 L-97,112 L-97,116 L-98,116 L-98,119 L-100,119 L-100,121 L-101,121 L-101,130 L-102,130 L-102,129 L-103,129 L-103,132 L-100,132 L-100,134 L-101,134 L-101,135 L-102,135 L-102,136 L-103,136 L-103,137 L-102,137 L-102,143 L-100,143 L-100,144 L-101,144 L-101,149 L-100,149 L-100,150 L-99,150 L-99,151 L-100,151 L-100,152 L-101,152 L-101,154 L-102,154 L-102,161 L-99,161 L-99,162 L-97,162 L-97,164 L-96,164 L-96,165 L-94,165 L-94,166 L-93,166 L-93,167 L-91,167 L-91,168 L-90,168 L-90,169 L-89,169 L-89,170 L-86,170 L-86,172 L-85,172 L-85,173 L-86,173 L-86,174 L-83,174 L-83,175 L-82,175 L-82,176 L-80,176 L-80,177 L-79,177 L-79,178 L-77,178 L-77,179 L-73,179 L-73,180 L-69,180 L-69,182 L-66,182 L-66,184 L-62,184 L-62,185 L-61,185 L-61,184 L-60,184 L-60,185 L-58,185 L-58,186 L-57,186 L-57,187 L-55,187 L-55,186 L-52,186 L-52,188 L-47,188 L-47,189 L-46,189 L-46,190 L-44,190 L-44,191 L-43,191 L-43,192 L-42,192 L-42,191 L-41,191 L-41,192 L-40,192 L-40,193 L-33,193 L-33,194 L-31,194 L-31,195 L-30,195 L-30,194 L-29,194 L-29,195 L-25,195 L-25,196 L-20,196 L-20,197 L-16,197 L-16,196 L-15,196 L-15,197 L-14,197 L-14,199 L-12,199 L-12,198 L-10,198 L-10,197 L-6,197 L-6,198 L-5,198 L-5,197 L-3,197 L-3,199 L-2,199 L-2,198 L0,198 L0,199 L9,199 L9,200 L18,200 L18,199 L21,199 L21,198 L32,198 L32,197 L34,197 L34,198 L40,198 L40,197 L43,197 L43,196 L50,196 L50,195 L55,195 L55,194 L58,194 L58,193 L59,193 L59,194 L63,194 L63,193 L66,193 L66,192 L67,192 L67,191 L71,191 L71,190 L75,190 L75,189 L76,189 L76,187 L80,187 L80,186 L86,186 L86,185 L89,185 L89,184 L90,184 L90,183 L91,183 L91,181 L94,181 L94,180 L96,180 L96,179 L100,179 L100,178 L102,178 L102,177 L103,177 L103,176 L105,176 L105,175 L108,175 L108,174 L109,174 L109,173 L111,173 L111,171 L112,171 L112,170 L114,170 L114,169 L115,169 L115,168 L117,168 L117,167 L118,167 L118,166 L119,166 L119,165 L123,165 L123,163 L124,163 L124,162 L126,162 L126,161 L127,161 L127,159 L130,159 L130,158 L131,158 L131,154 L130,154 L130,151 L129,151 L129,150 L130,150 L130,149 L131,149 L131,148 L130,148 L130,144 L129,144 L129,143 L131,143 L131,138 L132,138 L132,135 L130,135 L130,134 L129,134 L129,133 L130,133 L130,132 L132,132 L132,129 L131,129 L131,130 L130,130 L130,119 L128,119 L128,117 L127,117 L127,116 L126,116 L126,112 L125,112 L125,109 L124,109 L124,107 L123,107 L123,104 L122,104 L122,103 L121,103 L121,98 L120,98 L120,96 L118,96 L118,95 L117,95 L117,94 L116,94 L116,93 L114,93 L114,89 L113,89 L113,87 L112,87 L112,85 L111,85 L111,84 L110,84 L110,82 L109,82 L109,81 L107,81 L107,80 L105,80 L105,78 L104,78 L104,76 L103,76 L103,75 L101,75 L101,74 L100,74 L100,73 L99,73 L99,72 L98,72 L98,69 L97,69 L97,68 L94,68 L94,66 L92,66 L92,63 L91,63 L91,62 L90,62 L90,61 L87,61 L87,60 L84,60 L84,59 L83,59 L83,58 L82,58 L82,57 L81,57 L81,56 L80,56 L80,54 L79,54 L79,53 L77,53 L77,52 L76,52 L76,51 L71,51 L71,50 L70,50 L70,49 L68,49 L68,48 L67,48 L67,47 L66,47 L66,45 L64,45 L64,44 L56,44 L56,43 L53,43 L53,41 L49,41 L49,40 L46,40 L46,39 L45,39 L45,38 L36,38 L36,37 L33,37 L33,36 L31,36 L31,37 L25,37 L25,36 L24,36 L24,37 L23,37 L23,36 L22,36 L22,35 Z M130,202 L131,202 L131,203 L130,203 Z " fill="#623900" transform="translate(272,274)"/>
<path d="M0,0 L9,0 L9,2 L11,2 L11,1 L13,1 L13,2 L19,2 L19,1 L20,1 L20,2 L21,2 L21,3 L24,3 L24,4 L29,4 L29,5 L34,5 L34,6 L36,6 L36,7 L38,7 L38,8 L40,8 L40,9 L42,9 L42,10 L43,10 L43,11 L45,11 L45,12 L46,12 L46,13 L49,13 L49,14 L50,14 L50,15 L56,15 L56,16 L57,16 L57,17 L59,17 L59,18 L60,18 L60,19 L61,19 L61,20 L62,20 L62,22 L64,22 L64,23 L65,23 L65,24 L66,24 L66,26 L68,26 L68,27 L69,27 L69,30 L71,30 L71,32 L73,32 L73,35 L74,35 L74,36 L75,36 L75,37 L76,37 L76,39 L77,39 L77,45 L78,45 L78,47 L79,47 L79,49 L80,49 L80,50 L79,50 L79,54 L80,54 L80,55 L79,55 L79,56 L80,56 L80,57 L81,57 L81,60 L82,60 L82,63 L83,63 L83,68 L84,68 L84,69 L83,69 L83,71 L84,71 L84,78 L83,78 L83,81 L84,81 L84,92 L82,92 L82,95 L80,95 L80,96 L81,96 L81,100 L80,100 L80,106 L78,106 L78,108 L77,108 L77,110 L75,110 L75,113 L74,113 L74,114 L73,114 L73,115 L72,115 L72,117 L70,117 L70,119 L69,119 L69,121 L68,121 L68,122 L67,122 L67,125 L66,125 L66,126 L65,126 L65,127 L62,127 L62,128 L61,128 L61,129 L59,129 L59,132 L57,132 L57,134 L55,134 L55,135 L54,135 L54,136 L52,136 L52,137 L53,137 L53,138 L52,138 L52,140 L50,140 L50,141 L48,141 L48,142 L41,142 L41,144 L38,144 L38,145 L37,145 L37,144 L36,144 L36,146 L35,146 L35,147 L34,147 L34,146 L33,146 L33,147 L29,147 L29,148 L26,148 L26,150 L22,150 L22,151 L19,151 L19,150 L18,150 L18,151 L15,151 L15,150 L10,150 L10,151 L9,151 L9,150 L7,150 L7,151 L2,151 L2,150 L-6,150 L-6,151 L-9,151 L-9,150 L-10,150 L-10,151 L-13,151 L-13,150 L-17,150 L-17,148 L-20,148 L-20,147 L-24,147 L-24,146 L-25,146 L-25,147 L-26,147 L-26,146 L-27,146 L-27,144 L-28,144 L-28,145 L-29,145 L-29,144 L-32,144 L-32,142 L-39,142 L-39,141 L-41,141 L-41,140 L-43,140 L-43,138 L-44,138 L-44,137 L-43,137 L-43,136 L-45,136 L-45,135 L-46,135 L-46,134 L-48,134 L-48,132 L-50,132 L-50,129 L-52,129 L-52,128 L-53,128 L-53,127 L-56,127 L-56,126 L-57,126 L-57,123 L-58,123 L-58,122 L-59,122 L-59,121 L-60,121 L-60,118 L-61,118 L-61,117 L-63,117 L-63,115 L-64,115 L-64,114 L-65,114 L-65,113 L-66,113 L-66,110 L-68,110 L-68,108 L-69,108 L-69,106 L-71,106 L-71,102 L-70,102 L-70,101 L-71,101 L-71,100 L-72,100 L-72,99 L-73,99 L-73,98 L-72,98 L-72,96 L-71,96 L-71,95 L-73,95 L-73,92 L-75,92 L-75,81 L-74,81 L-74,78 L-75,78 L-75,72 L-74,72 L-74,69 L-75,69 L-75,68 L-74,68 L-74,63 L-73,63 L-73,60 L-72,60 L-72,56 L-70,56 L-70,55 L-71,55 L-71,54 L-70,54 L-70,50 L-71,50 L-71,49 L-70,49 L-70,47 L-69,47 L-69,45 L-68,45 L-68,43 L-67,43 L-67,37 L-65,37 L-65,35 L-64,35 L-64,33 L-63,33 L-63,32 L-62,32 L-62,30 L-60,30 L-60,27 L-57,27 L-57,24 L-56,24 L-56,23 L-55,23 L-55,22 L-53,22 L-53,21 L-52,21 L-52,19 L-51,19 L-51,18 L-49,18 L-49,17 L-48,17 L-48,16 L-47,16 L-47,15 L-41,15 L-41,14 L-40,14 L-40,13 L-37,13 L-37,11 L-34,11 L-34,10 L-33,10 L-33,9 L-29,9 L-29,7 L-27,7 L-27,6 L-25,6 L-25,5 L-22,5 L-22,4 L-15,4 L-15,3 L-12,3 L-12,2 L-11,2 L-11,1 L-10,1 L-10,2 L-4,2 L-4,1 L-2,1 L-2,2 L0,2 Z M-73,55 L-72,55 L-72,56 L-73,56 Z " fill="#391D0D" transform="translate(282,108)"/>
<path d="M0,0 L9,0 L9,1 L11,1 L11,3 L12,3 L12,4 L13,4 L13,5 L15,5 L15,6 L16,6 L16,7 L21,7 L21,8 L22,8 L22,9 L24,9 L24,10 L25,10 L25,12 L26,12 L26,13 L27,13 L27,14 L28,14 L28,15 L29,15 L29,16 L32,16 L32,17 L35,17 L35,18 L36,18 L36,19 L37,19 L37,22 L39,22 L39,24 L42,24 L42,25 L43,25 L43,28 L44,28 L44,29 L45,29 L45,30 L46,30 L46,31 L48,31 L48,32 L49,32 L49,34 L50,34 L50,36 L52,36 L52,37 L54,37 L54,38 L55,38 L55,40 L56,40 L56,41 L57,41 L57,43 L58,43 L58,45 L59,45 L59,49 L61,49 L61,50 L62,50 L62,51 L63,51 L63,52 L65,52 L65,54 L66,54 L66,59 L67,59 L67,60 L68,60 L68,63 L69,63 L69,65 L70,65 L70,68 L71,68 L71,72 L72,72 L72,73 L73,73 L73,75 L75,75 L75,86 L76,86 L76,85 L77,85 L77,88 L75,88 L75,89 L74,89 L74,90 L75,90 L75,91 L77,91 L77,94 L76,94 L76,99 L74,99 L74,100 L75,100 L75,104 L76,104 L76,105 L75,105 L75,106 L74,106 L74,107 L75,107 L75,110 L76,110 L76,114 L75,114 L75,115 L72,115 L72,117 L71,117 L71,118 L69,118 L69,119 L68,119 L68,121 L64,121 L64,122 L63,122 L63,123 L62,123 L62,124 L60,124 L60,125 L59,125 L59,126 L57,126 L57,127 L56,127 L56,129 L54,129 L54,130 L53,130 L53,131 L50,131 L50,132 L48,132 L48,133 L47,133 L47,134 L45,134 L45,135 L41,135 L41,136 L39,136 L39,137 L36,137 L36,139 L35,139 L35,140 L34,140 L34,141 L31,141 L31,142 L25,142 L25,143 L21,143 L21,145 L20,145 L20,146 L16,146 L16,147 L12,147 L12,148 L11,148 L11,149 L8,149 L8,150 L4,150 L4,149 L3,149 L3,150 L0,150 L0,151 L-5,151 L-5,152 L-12,152 L-12,153 L-15,153 L-15,154 L-21,154 L-21,153 L-23,153 L-23,154 L-34,154 L-34,155 L-37,155 L-37,156 L-46,156 L-46,155 L-55,155 L-55,154 L-57,154 L-57,155 L-58,155 L-58,153 L-60,153 L-60,154 L-61,154 L-61,153 L-65,153 L-65,154 L-67,154 L-67,155 L-69,155 L-69,153 L-70,153 L-70,152 L-71,152 L-71,153 L-75,153 L-75,152 L-80,152 L-80,151 L-84,151 L-84,150 L-85,150 L-85,151 L-86,151 L-86,150 L-88,150 L-88,149 L-95,149 L-95,148 L-96,148 L-96,147 L-97,147 L-97,148 L-98,148 L-98,147 L-99,147 L-99,146 L-98,146 L-98,145 L-97,145 L-97,144 L-96,144 L-96,143 L-94,143 L-94,142 L-93,142 L-93,141 L-92,141 L-92,140 L-91,140 L-91,139 L-90,139 L-90,138 L-88,138 L-88,137 L-86,137 L-86,136 L-85,136 L-85,135 L-84,135 L-84,133 L-82,133 L-82,132 L-80,132 L-80,131 L-79,131 L-79,129 L-77,129 L-77,128 L-76,128 L-76,127 L-75,127 L-75,126 L-74,126 L-74,125 L-73,125 L-73,124 L-72,124 L-72,123 L-71,123 L-71,122 L-69,122 L-69,121 L-68,121 L-68,120 L-67,120 L-67,119 L-66,119 L-66,117 L-64,117 L-64,115 L-63,115 L-63,113 L-62,113 L-62,112 L-61,112 L-61,111 L-60,111 L-60,110 L-58,110 L-58,109 L-57,109 L-57,107 L-56,107 L-56,106 L-55,106 L-55,104 L-54,104 L-54,103 L-53,103 L-53,102 L-52,102 L-52,101 L-51,101 L-51,99 L-50,99 L-50,97 L-49,97 L-49,96 L-48,96 L-48,95 L-47,95 L-47,93 L-46,93 L-46,92 L-45,92 L-45,90 L-44,90 L-44,89 L-43,89 L-43,87 L-42,87 L-42,86 L-41,86 L-41,85 L-39,85 L-39,81 L-38,81 L-38,79 L-37,79 L-37,78 L-36,78 L-36,76 L-35,76 L-35,75 L-34,75 L-34,73 L-33,73 L-33,70 L-32,70 L-32,69 L-31,69 L-31,67 L-30,67 L-30,65 L-29,65 L-29,64 L-28,64 L-28,63 L-27,63 L-27,59 L-26,59 L-26,57 L-25,57 L-25,54 L-24,54 L-24,53 L-23,53 L-23,50 L-22,50 L-22,49 L-21,49 L-21,47 L-20,47 L-20,43 L-19,43 L-19,41 L-18,41 L-18,39 L-17,39 L-17,36 L-16,36 L-16,34 L-15,34 L-15,33 L-14,33 L-14,32 L-13,32 L-13,29 L-12,29 L-12,28 L-11,28 L-11,24 L-10,24 L-10,23 L-9,23 L-9,20 L-8,20 L-8,17 L-7,17 L-7,15 L-6,15 L-6,13 L-5,13 L-5,8 L-4,8 L-4,5 L-3,5 L-3,3 L-2,3 L-2,2 L-1,2 L-1,1 L0,1 Z " fill="#EE9B28" transform="translate(327,318)"/>
<path d="M0,0 L2,0 L2,1 L4,1 L4,2 L5,2 L5,1 L6,1 L6,0 L16,0 L16,2 L18,2 L18,9 L19,9 L19,10 L20,10 L20,16 L17,16 L17,17 L18,17 L18,19 L20,19 L20,20 L19,20 L19,22 L18,22 L18,30 L19,30 L19,38 L18,38 L18,45 L16,45 L16,48 L17,48 L17,50 L16,50 L16,55 L15,55 L15,60 L14,60 L14,62 L13,62 L13,64 L12,64 L12,70 L11,70 L11,73 L10,73 L10,76 L9,76 L9,78 L10,78 L10,80 L9,80 L9,81 L8,81 L8,83 L7,83 L7,84 L6,84 L6,90 L5,90 L5,92 L3,92 L3,98 L2,98 L2,99 L1,99 L1,103 L0,103 L0,105 L-1,105 L-1,107 L-2,107 L-2,109 L-3,109 L-3,110 L-5,110 L-5,113 L-6,113 L-6,115 L-7,115 L-7,116 L-8,116 L-8,120 L-9,120 L-9,122 L-10,122 L-10,124 L-11,124 L-11,125 L-12,125 L-12,126 L-14,126 L-14,127 L-15,127 L-15,128 L-16,128 L-16,131 L-17,131 L-17,132 L-18,132 L-18,134 L-19,134 L-19,135 L-20,135 L-20,137 L-21,137 L-21,139 L-22,139 L-22,141 L-23,141 L-23,142 L-24,142 L-24,143 L-25,143 L-25,144 L-26,144 L-26,145 L-28,145 L-28,142 L-29,142 L-29,138 L-28,138 L-28,137 L-29,137 L-29,132 L-30,132 L-30,130 L-29,130 L-29,129 L-31,129 L-31,127 L-32,127 L-32,126 L-31,126 L-31,125 L-32,125 L-32,120 L-33,120 L-33,118 L-35,118 L-35,114 L-36,114 L-36,113 L-37,113 L-37,109 L-38,109 L-38,108 L-40,108 L-40,104 L-41,104 L-41,99 L-42,99 L-42,98 L-43,98 L-43,95 L-44,95 L-44,94 L-45,94 L-45,90 L-47,90 L-47,89 L-48,89 L-48,85 L-51,85 L-51,84 L-52,84 L-52,83 L-53,83 L-53,82 L-54,82 L-54,81 L-55,81 L-55,77 L-56,77 L-56,76 L-57,76 L-57,73 L-58,73 L-58,72 L-60,72 L-60,70 L-61,70 L-61,69 L-63,69 L-63,66 L-66,66 L-66,63 L-68,63 L-68,62 L-69,62 L-69,61 L-70,61 L-70,60 L-71,60 L-71,59 L-72,59 L-72,58 L-73,58 L-73,55 L-74,55 L-74,49 L-71,49 L-71,48 L-68,48 L-68,37 L-67,37 L-67,36 L-65,36 L-65,35 L-60,35 L-60,34 L-58,34 L-58,33 L-54,33 L-54,32 L-51,32 L-51,31 L-42,31 L-42,30 L-37,30 L-37,29 L-35,29 L-35,28 L-32,28 L-32,25 L-33,25 L-33,21 L-32,21 L-32,20 L-31,20 L-31,19 L-30,19 L-30,18 L-28,18 L-28,17 L-26,17 L-26,16 L-23,16 L-23,15 L-19,15 L-19,14 L-12,14 L-12,9 L-13,9 L-13,8 L-14,8 L-14,5 L-13,5 L-13,3 L-11,3 L-11,4 L-10,4 L-10,3 L-9,3 L-9,2 L-8,2 L-8,1 L-7,1 L-7,2 L-6,2 L-6,1 L0,1 Z " fill="#FEFEFE" transform="translate(462,256)"/>
<path d="M0,0 L7,0 L7,1 L10,1 L10,2 L16,2 L16,1 L20,1 L20,2 L25,2 L25,3 L26,3 L26,5 L27,5 L27,7 L29,7 L29,8 L30,8 L30,9 L33,9 L33,11 L34,11 L34,12 L36,12 L36,13 L39,13 L39,14 L40,14 L40,15 L41,15 L41,19 L42,19 L42,20 L43,20 L43,21 L44,21 L44,23 L45,23 L45,26 L46,26 L46,27 L47,27 L47,30 L48,30 L48,35 L49,35 L49,37 L50,37 L50,39 L49,39 L49,40 L48,40 L48,41 L49,41 L49,51 L48,51 L48,53 L47,53 L47,57 L46,57 L46,59 L45,59 L45,61 L44,61 L44,62 L43,62 L43,64 L42,64 L42,65 L41,65 L41,66 L40,66 L40,68 L39,68 L39,70 L38,70 L38,71 L36,71 L36,72 L35,72 L35,73 L33,73 L33,75 L31,75 L31,77 L28,77 L28,78 L24,78 L24,79 L21,79 L21,80 L20,80 L20,81 L17,81 L17,80 L13,80 L13,79 L12,79 L12,80 L11,80 L11,81 L5,81 L5,82 L2,82 L2,81 L-2,81 L-2,80 L-5,80 L-5,79 L-6,79 L-6,80 L-9,80 L-9,81 L-13,81 L-13,80 L-14,80 L-14,79 L-17,79 L-17,78 L-21,78 L-21,77 L-23,77 L-23,76 L-24,76 L-24,75 L-26,75 L-26,73 L-28,73 L-28,72 L-29,72 L-29,71 L-31,71 L-31,70 L-32,70 L-32,68 L-33,68 L-33,65 L-34,65 L-34,64 L-35,64 L-35,62 L-37,62 L-37,60 L-38,60 L-38,58 L-39,58 L-39,57 L-40,57 L-40,52 L-41,52 L-41,51 L-42,51 L-42,42 L-41,42 L-41,30 L-40,30 L-40,27 L-39,27 L-39,26 L-38,26 L-38,22 L-36,22 L-36,20 L-35,20 L-35,19 L-34,19 L-34,15 L-33,15 L-33,14 L-32,14 L-32,13 L-29,13 L-29,12 L-28,12 L-28,10 L-26,10 L-26,9 L-23,9 L-23,8 L-22,8 L-22,7 L-21,7 L-21,6 L-20,6 L-20,5 L-19,5 L-19,3 L-17,3 L-17,2 L-13,2 L-13,1 L-8,1 L-8,2 L-2,2 L-2,1 L0,1 Z " fill="#DCCDC0" transform="translate(283,142)"/>
<path d="M0,0 L7,0 L7,1 L11,1 L11,3 L12,3 L12,5 L13,5 L13,7 L14,7 L14,12 L13,12 L13,13 L12,13 L12,15 L9,15 L9,17 L15,17 L15,16 L23,16 L23,15 L24,15 L24,16 L30,16 L30,17 L31,17 L31,18 L32,18 L32,19 L33,19 L33,29 L31,29 L31,31 L28,31 L28,32 L27,32 L27,33 L23,33 L23,34 L22,34 L22,35 L18,35 L18,36 L17,36 L17,37 L14,37 L14,38 L10,38 L10,39 L5,39 L5,40 L1,40 L1,41 L-6,41 L-6,42 L-13,42 L-13,43 L-17,43 L-17,44 L-25,44 L-25,45 L-30,45 L-30,46 L-33,46 L-33,47 L-38,47 L-38,48 L-48,48 L-48,49 L-53,49 L-53,50 L-58,50 L-58,51 L-65,51 L-65,52 L-66,52 L-66,53 L-70,53 L-70,54 L-79,54 L-79,55 L-81,55 L-81,56 L-85,56 L-85,54 L-87,54 L-87,52 L-86,52 L-86,51 L-87,51 L-87,49 L-86,49 L-86,48 L-85,48 L-85,47 L-83,47 L-83,45 L-87,45 L-87,43 L-86,43 L-86,38 L-85,38 L-85,37 L-84,37 L-84,35 L-85,35 L-85,34 L-84,34 L-84,31 L-83,31 L-83,24 L-82,24 L-82,22 L-83,22 L-83,20 L-84,20 L-84,18 L-83,18 L-83,13 L-82,13 L-82,12 L-81,12 L-81,13 L-80,13 L-80,12 L-78,12 L-78,11 L-73,11 L-73,10 L-69,10 L-69,9 L-65,9 L-65,8 L-60,8 L-60,7 L-58,7 L-58,6 L-50,6 L-50,5 L-41,5 L-41,4 L-38,4 L-38,3 L-30,3 L-30,2 L-13,2 L-13,1 L-11,1 L-11,2 L-8,2 L-8,1 L-7,1 L-7,2 L-6,2 L-6,1 L0,1 Z " fill="#FEFEFE" transform="translate(174,225)"/>
<path d="M0,0 L3,0 L3,1 L6,1 L6,2 L7,2 L7,3 L8,3 L8,5 L9,5 L9,6 L10,6 L10,7 L12,7 L12,8 L15,8 L15,9 L48,9 L48,8 L57,8 L57,9 L58,9 L58,8 L66,8 L66,7 L77,7 L77,10 L76,10 L76,13 L75,13 L75,15 L76,15 L76,17 L75,17 L75,18 L74,18 L74,20 L73,20 L73,21 L72,21 L72,27 L71,27 L71,29 L69,29 L69,35 L68,35 L68,36 L67,36 L67,40 L66,40 L66,42 L65,42 L65,44 L64,44 L64,46 L63,46 L63,47 L61,47 L61,50 L60,50 L60,52 L59,52 L59,53 L58,53 L58,57 L57,57 L57,59 L56,59 L56,61 L55,61 L55,62 L54,62 L54,63 L52,63 L52,64 L51,64 L51,65 L50,65 L50,68 L49,68 L49,69 L48,69 L48,71 L47,71 L47,72 L46,72 L46,74 L45,74 L45,76 L44,76 L44,78 L43,78 L43,79 L42,79 L42,80 L41,80 L41,81 L40,81 L40,82 L38,82 L38,79 L37,79 L37,75 L38,75 L38,74 L37,74 L37,69 L36,69 L36,67 L37,67 L37,66 L35,66 L35,64 L34,64 L34,63 L35,63 L35,62 L34,62 L34,57 L33,57 L33,55 L31,55 L31,51 L30,51 L30,50 L29,50 L29,46 L28,46 L28,45 L26,45 L26,41 L25,41 L25,36 L24,36 L24,35 L23,35 L23,32 L22,32 L22,31 L21,31 L21,27 L19,27 L19,26 L18,26 L18,22 L15,22 L15,21 L14,21 L14,20 L13,20 L13,19 L12,19 L12,18 L11,18 L11,14 L10,14 L10,13 L9,13 L9,10 L8,10 L8,9 L6,9 L6,7 L5,7 L5,6 L3,6 L3,3 L0,3 Z " fill="#D0E5EC" transform="translate(396,319)"/>
<path d="M0,0 L2,0 L2,1 L0,1 Z " fill="#603800" transform="translate(409,472)"/>
<path d="M0,0 L1,0 L1,2 L0,2 Z " fill="#052E3A" transform="translate(58,236)"/>
<path d="M0,0 L1,0 L1,1 L0,1 Z " fill="#603900" transform="translate(237,502)"/>
<path d="M0,0 L1,0 L1,1 L0,1 Z " fill="#6D4900" transform="translate(229,502)"/>
<path d="M0,0 L1,0 L1,1 L0,1 Z " fill="#613D00" transform="translate(398,479)"/>
<path d="M0,0 L1,0 L1,1 L0,1 Z " fill="#5D3A00" transform="translate(414,469)"/>
<path d="M0,0 L1,0 L1,1 L0,1 Z " fill="#555500" transform="translate(154,469)"/>
<path d="M0,0 L1,0 L1,1 L0,1 Z " fill="#604000" transform="translate(416,468)"/>
<path d="M0,0 L1,0 L1,1 L0,1 Z " fill="#643600" transform="translate(433,453)"/>
<path d="M0,0 L1,0 L1,1 L0,1 Z " fill="#042F3C" transform="translate(446,442)"/>
<path d="M0,0 L1,0 L1,1 L0,1 Z " fill="#004040" transform="translate(91,406)"/>
<path d="M0,0 L1,0 L1,1 L0,1 Z " fill="#002B40" transform="translate(62,338)"/>
<path d="M0,0 L1,0 L1,1 L0,1 Z " fill="#092B3C" transform="translate(510,326)"/>
<path d="M0,0 L1,0 L1,1 L0,1 Z " fill="#042C3A" transform="translate(512,305)"/>
<path d="M0,0 L1,0 L1,1 L0,1 Z " fill="#002B2B" transform="translate(53,276)"/>
<path d="M0,0 L1,0 L1,1 L0,1 Z " fill="#062D3B" transform="translate(53,274)"/>
<path d="M0,0 L1,0 L1,1 L0,1 Z " fill="#052D3C" transform="translate(55,247)"/>
<path d="M0,0 L1,0 L1,1 L0,1 Z " fill="#042E3C" transform="translate(55,244)"/>
<path d="M0,0 L1,0 L1,1 L0,1 Z " fill="#082D3C" transform="translate(57,239)"/>
<path d="M0,0 L1,0 L1,1 L0,1 Z " fill="#002449" transform="translate(245,50)"/>
<path d="M0,0 L1,0 L1,1 L0,1 Z " fill="#002449" transform="translate(326,48)"/>
<path d="M0,0 L1,0 L1,1 L0,1 Z " fill="#083040" transform="translate(258,47)"/>
</svg>
